# xmcd
#
# Track frame offsets: 
#        150
#        26852
#        50306
#        77504
#        103449
#        135626
#        161177
#        193145
#
# Disc length: 3037 seconds
#
# Revision: 2
# Processed by: cddbd v1.5.2PL0 Copyright (c) Steve Scherf et al.
# Submitted via: ExactAudioCopy v0.99pb3
#
DISCID=6e0bdb08
DTITLE=Acoustic Guitars - Out of the blue
DYEAR=1999
DGENRE=Blues
TTITLE0=Blue Lotus
TTITLE1=Muro Bukea
TTITLE2=Rites of Passage
TTITLE3=Incitation
TTITLE4=Tages Ti Hai
TTITLE5=Birtes Bulerias
TTITLE6=Light Shadows
TTITLE7=Out of the Blue
EXTD=YEAR: 1999  ID3G:   0
EXTT0=
EXTT1=
EXTT2=
EXTT3=
EXTT4=
EXTT5=
EXTT6=
EXTT7=
PLAYORDER=
